<svg version="1.1" xmlns="http://www.w3.org/2000/svg" viewBox="0 0 1042.6695103453549 870.4929309548452" width="2085.3390206907097" height="1740.9858619096904">
  <!-- svg-source:excalidraw -->
  
  <rect x="0" y="0" width="1042.6695103453549" height="870.4929309548452" fill="#ffffff"></rect><g stroke-linecap="round" transform="translate(10 10) rotate(0 511.3347551726775 425.2464654774226)"><path d="M32 0 C252.86 0, 473.72 0, 990.67 0 M32 0 C318.26 0, 604.52 0, 990.67 0 M990.67 0 C1012 0, 1022.67 10.67, 1022.67 32 M990.67 0 C1012 0, 1022.67 10.67, 1022.67 32 M1022.67 32 C1022.67 212.6, 1022.67 393.21, 1022.67 818.49 M1022.67 32 C1022.67 281, 1022.67 530, 1022.67 818.49 M1022.67 818.49 C1022.67 839.83, 1012 850.49, 990.67 850.49 M1022.67 818.49 C1022.67 839.83, 1012 850.49, 990.67 850.49 M990.67 850.49 C681.13 850.49, 371.6 850.49, 32 850.49 M990.67 850.49 C737.61 850.49, 484.54 850.49, 32 850.49 M32 850.49 C10.67 850.49, 0 839.83, 0 818.49 M32 850.49 C10.67 850.49, 0 839.83, 0 818.49 M0 818.49 C0 581.57, 0 344.65, 0 32 M0 818.49 C0 608.64, 0 398.79, 0 32 M0 32 C0 10.67, 10.67 0, 32 0 M0 32 C0 10.67, 10.67 0, 32 0" stroke="#ffffff" stroke-width="4" fill="none"></path></g><g stroke-linecap="round" transform="translate(158.42808568147382 637.8508024326347) rotate(0 36.59426985165061 35.62274056355369)"><path d="M73.19 35.62 C73.19 37.48, 73.04 39.36, 72.74 41.2 C72.44 43.03, 71.99 44.86, 71.4 46.63 C70.81 48.4, 70.07 50.14, 69.2 51.8 C68.33 53.45, 67.32 55.06, 66.2 56.56 C65.08 58.06, 63.82 59.5, 62.47 60.81 C61.12 62.13, 59.65 63.35, 58.1 64.44 C56.56 65.53, 54.91 66.52, 53.21 67.36 C51.51 68.21, 49.72 68.93, 47.9 69.5 C46.09 70.08, 44.2 70.52, 42.32 70.81 C40.43 71.1, 38.5 71.25, 36.59 71.25 C34.69 71.25, 32.75 71.1, 30.87 70.81 C28.98 70.52, 27.1 70.08, 25.29 69.5 C23.47 68.93, 21.68 68.21, 19.98 67.36 C18.28 66.52, 16.63 65.53, 15.08 64.44 C13.54 63.35, 12.07 62.13, 10.72 60.81 C9.37 59.5, 8.11 58.06, 6.99 56.56 C5.87 55.06, 4.85 53.45, 3.99 51.8 C3.12 50.14, 2.38 48.4, 1.79 46.63 C1.2 44.86, 0.75 43.03, 0.45 41.2 C0.15 39.36, 0 37.48, 0 35.62 C0 33.77, 0.15 31.88, 0.45 30.05 C0.75 28.22, 1.2 26.38, 1.79 24.61 C2.38 22.85, 3.12 21.11, 3.99 19.45 C4.85 17.8, 5.87 16.19, 6.99 14.68 C8.11 13.18, 9.37 11.75, 10.72 10.43 C12.07 9.12, 13.54 7.9, 15.08 6.8 C16.63 5.71, 18.28 4.73, 19.98 3.88 C21.68 3.04, 23.47 2.32, 25.29 1.74 C27.1 1.17, 28.98 0.73, 30.87 0.44 C32.75 0.15, 34.69 0, 36.59 0 C38.5 0, 40.43 0.15, 42.32 0.44 C44.2 0.73, 46.09 1.17, 47.9 1.74 C49.72 2.32, 51.51 3.04, 53.21 3.88 C54.91 4.73, 56.56 5.71, 58.1 6.8 C59.65 7.9, 61.12 9.12, 62.47 10.43 C63.82 11.75, 65.08 13.18, 66.2 14.68 C67.32 16.19, 68.33 17.8, 69.2 19.45 C70.07 21.11, 70.81 22.85, 71.4 24.61 C71.99 26.38, 72.44 28.22, 72.74 30.05 C73.04 31.88, 73.11 34.69, 73.19 35.62 C73.26 36.55, 73.26 34.69, 73.19 35.62" stroke="none" stroke-width="0" fill="#1971c2"></path><path d="M73.19 35.62 C73.19 37.48, 73.04 39.36, 72.74 41.2 C72.44 43.03, 71.99 44.86, 71.4 46.63 C70.81 48.4, 70.07 50.14, 69.2 51.8 C68.33 53.45, 67.32 55.06, 66.2 56.56 C65.08 58.06, 63.82 59.5, 62.47 60.81 C61.12 62.13, 59.65 63.35, 58.1 64.44 C56.56 65.53, 54.91 66.52, 53.21 67.36 C51.51 68.21, 49.72 68.93, 47.9 69.5 C46.09 70.08, 44.2 70.52, 42.32 70.81 C40.43 71.1, 38.5 71.25, 36.59 71.25 C34.69 71.25, 32.75 71.1, 30.87 70.81 C28.98 70.52, 27.1 70.08, 25.29 69.5 C23.47 68.93, 21.68 68.21, 19.98 67.36 C18.28 66.52, 16.63 65.53, 15.08 64.44 C13.54 63.35, 12.07 62.13, 10.72 60.81 C9.37 59.5, 8.11 58.06, 6.99 56.56 C5.87 55.06, 4.85 53.45, 3.99 51.8 C3.12 50.14, 2.38 48.4, 1.79 46.63 C1.2 44.86, 0.75 43.03, 0.45 41.2 C0.15 39.36, 0 37.48, 0 35.62 C0 33.77, 0.15 31.88, 0.45 30.05 C0.75 28.22, 1.2 26.38, 1.79 24.61 C2.38 22.85, 3.12 21.11, 3.99 19.45 C4.85 17.8, 5.87 16.19, 6.99 14.68 C8.11 13.18, 9.37 11.75, 10.72 10.43 C12.07 9.12, 13.54 7.9, 15.08 6.8 C16.63 5.71, 18.28 4.73, 19.98 3.88 C21.68 3.04, 23.47 2.32, 25.29 1.74 C27.1 1.17, 28.98 0.73, 30.87 0.44 C32.75 0.15, 34.69 0, 36.59 0 C38.5 0, 40.43 0.15, 42.32 0.44 C44.2 0.73, 46.09 1.17, 47.9 1.74 C49.72 2.32, 51.51 3.04, 53.21 3.88 C54.91 4.73, 56.56 5.71, 58.1 6.8 C59.65 7.9, 61.12 9.12, 62.47 10.43 C63.82 11.75, 65.08 13.18, 66.2 14.68 C67.32 16.19, 68.33 17.8, 69.2 19.45 C70.07 21.11, 70.81 22.85, 71.4 24.61 C71.99 26.38, 72.44 28.22, 72.74 30.05 C73.04 31.88, 73.11 34.69, 73.19 35.62 C73.26 36.55, 73.26 34.69, 73.19 35.62" stroke="#ffffff" stroke-width="4" fill="none"></path></g><g stroke-linecap="round" transform="translate(426.53006857448406 215.05580621145037) rotate(0 106.5 31)"><path d="M15.5 0 C81.86 0, 148.22 0, 197.5 0 M15.5 0 C62.96 0, 110.41 0, 197.5 0 M197.5 0 C207.83 0, 213 5.17, 213 15.5 M197.5 0 C207.83 0, 213 5.17, 213 15.5 M213 15.5 C213 22.88, 213 30.26, 213 46.5 M213 15.5 C213 24.04, 213 32.58, 213 46.5 M213 46.5 C213 56.83, 207.83 62, 197.5 62 M213 46.5 C213 56.83, 207.83 62, 197.5 62 M197.5 62 C138.07 62, 78.65 62, 15.5 62 M197.5 62 C152.98 62, 108.46 62, 15.5 62 M15.5 62 C5.17 62, 0 56.83, 0 46.5 M15.5 62 C5.17 62, 0 56.83, 0 46.5 M0 46.5 C0 36.91, 0 27.33, 0 15.5 M0 46.5 C0 38.84, 0 31.19, 0 15.5 M0 15.5 C0 5.17, 5.17 0, 15.5 0 M0 15.5 C0 5.17, 5.17 0, 15.5 0" stroke="#1e1e1e" stroke-width="2" fill="none"></path></g><g transform="translate(440.49673574977703 233.55580621145037) rotate(0 92.53333282470703 12.5)"><text x="92.53333282470703" y="17.52" font-family="Virgil, Segoe UI Emoji" font-size="20px" fill="#1e1e1e" text-anchor="middle" style="white-space: pre;" direction="ltr" dominant-baseline="alphabetic">Maladie ou trouble</text></g><g stroke-linecap="round" transform="translate(714.5300685744841 413.5558062114504) rotate(0 106.5 31)"><path d="M15.5 0 C72.47 0, 129.45 0, 197.5 0 M15.5 0 C69.08 0, 122.66 0, 197.5 0 M197.5 0 C207.83 0, 213 5.17, 213 15.5 M197.5 0 C207.83 0, 213 5.17, 213 15.5 M213 15.5 C213 23.6, 213 31.7, 213 46.5 M213 15.5 C213 23.33, 213 31.16, 213 46.5 M213 46.5 C213 56.83, 207.83 62, 197.5 62 M213 46.5 C213 56.83, 207.83 62, 197.5 62 M197.5 62 C127 62, 56.5 62, 15.5 62 M197.5 62 C135.81 62, 74.11 62, 15.5 62 M15.5 62 C5.17 62, 0 56.83, 0 46.5 M15.5 62 C5.17 62, 0 56.83, 0 46.5 M0 46.5 C0 38.62, 0 30.73, 0 15.5 M0 46.5 C0 35.4, 0 24.31, 0 15.5 M0 15.5 C0 5.17, 5.17 0, 15.5 0 M0 15.5 C0 5.17, 5.17 0, 15.5 0" stroke="#1e1e1e" stroke-width="2" fill="none"></path></g><g transform="translate(758.7800685744841 432.0558062114504) rotate(0 62.25 12.5)"><text x="62.25" y="17.52" font-family="Virgil, Segoe UI Emoji" font-size="20px" fill="#1e1e1e" text-anchor="middle" style="white-space: pre;" direction="ltr" dominant-baseline="alphabetic">Participation</text></g><g stroke-linecap="round" transform="translate(427.53006857448406 413.5558062114504) rotate(0 106.5 31)"><path d="M15.5 0 C69.45 0, 123.41 0, 197.5 0 M15.5 0 C55.86 0, 96.21 0, 197.5 0 M197.5 0 C207.83 0, 213 5.17, 213 15.5 M197.5 0 C207.83 0, 213 5.17, 213 15.5 M213 15.5 C213 23.8, 213 32.1, 213 46.5 M213 15.5 C213 27.56, 213 39.63, 213 46.5 M213 46.5 C213 56.83, 207.83 62, 197.5 62 M213 46.5 C213 56.83, 207.83 62, 197.5 62 M197.5 62 C130.33 62, 63.15 62, 15.5 62 M197.5 62 C157.16 62, 116.83 62, 15.5 62 M15.5 62 C5.17 62, 0 56.83, 0 46.5 M15.5 62 C5.17 62, 0 56.83, 0 46.5 M0 46.5 C0 38.04, 0 29.58, 0 15.5 M0 46.5 C0 38.31, 0 30.13, 0 15.5 M0 15.5 C0 5.17, 5.17 0, 15.5 0 M0 15.5 C0 5.17, 5.17 0, 15.5 0" stroke="#1e1e1e" stroke-width="2" fill="none"></path></g><g transform="translate(489.9467365127165 432.0558062114504) rotate(0 44.08333206176758 12.5)"><text x="44.08333206176758" y="17.52" font-family="Virgil, Segoe UI Emoji" font-size="20px" fill="#1e1e1e" text-anchor="middle" style="white-space: pre;" direction="ltr" dominant-baseline="alphabetic">Activités</text></g><g stroke-linecap="round" transform="translate(286.53006857448406 662.0558062114503) rotate(0 106.5 31)"><path d="M15.5 0 C85.38 0, 155.26 0, 197.5 0 M15.5 0 C80.73 0, 145.96 0, 197.5 0 M197.5 0 C207.83 0, 213 5.17, 213 15.5 M197.5 0 C207.83 0, 213 5.17, 213 15.5 M213 15.5 C213 23.44, 213 31.39, 213 46.5 M213 15.5 C213 24.7, 213 33.91, 213 46.5 M213 46.5 C213 56.83, 207.83 62, 197.5 62 M213 46.5 C213 56.83, 207.83 62, 197.5 62 M197.5 62 C158.84 62, 120.17 62, 15.5 62 M197.5 62 C159.14 62, 120.78 62, 15.5 62 M15.5 62 C5.17 62, 0 56.83, 0 46.5 M15.5 62 C5.17 62, 0 56.83, 0 46.5 M0 46.5 C0 37.69, 0 28.87, 0 15.5 M0 46.5 C0 36.1, 0 25.7, 0 15.5 M0 15.5 C0 5.17, 5.17 0, 15.5 0 M0 15.5 C0 5.17, 5.17 0, 15.5 0" stroke="#1971c2" stroke-width="4" fill="none"></path></g><g transform="translate(309.49673574977703 668.0558062114503) rotate(0 83.53333282470703 25)"><text x="83.53333282470703" y="17.52" font-family="Virgil, Segoe UI Emoji" font-size="20px" fill="#1971c2" text-anchor="middle" style="white-space: pre;" direction="ltr" dominant-baseline="alphabetic">Facteurs</text><text x="83.53333282470703" y="42.519999999999996" font-family="Virgil, Segoe UI Emoji" font-size="20px" fill="#1971c2" text-anchor="middle" style="white-space: pre;" direction="ltr" dominant-baseline="alphabetic">Environnementaux</text></g><g stroke-linecap="round" transform="translate(579.5300685744841 662.0558062114503) rotate(0 106.5 31)"><path d="M15.5 0 C64.22 0, 112.94 0, 197.5 0 M15.5 0 C86.32 0, 157.14 0, 197.5 0 M197.5 0 C207.83 0, 213 5.17, 213 15.5 M197.5 0 C207.83 0, 213 5.17, 213 15.5 M213 15.5 C213 26.94, 213 38.38, 213 46.5 M213 15.5 C213 22.37, 213 29.24, 213 46.5 M213 46.5 C213 56.83, 207.83 62, 197.5 62 M213 46.5 C213 56.83, 207.83 62, 197.5 62 M197.5 62 C147.82 62, 98.14 62, 15.5 62 M197.5 62 C149.44 62, 101.37 62, 15.5 62 M15.5 62 C5.17 62, 0 56.83, 0 46.5 M15.5 62 C5.17 62, 0 56.83, 0 46.5 M0 46.5 C0 37.83, 0 29.15, 0 15.5 M0 46.5 C0 34.62, 0 22.74, 0 15.5 M0 15.5 C0 5.17, 5.17 0, 15.5 0 M0 15.5 C0 5.17, 5.17 0, 15.5 0" stroke="#1e1e1e" stroke-width="2" fill="none"></path></g><g transform="translate(635.8134013991911 668.0558062114503) rotate(0 50.21666717529297 25)"><text x="50.21666717529297" y="17.52" font-family="Virgil, Segoe UI Emoji" font-size="20px" fill="#1e1e1e" text-anchor="middle" style="white-space: pre;" direction="ltr" dominant-baseline="alphabetic">Facteurs</text><text x="50.21666717529297" y="42.519999999999996" font-family="Virgil, Segoe UI Emoji" font-size="20px" fill="#1e1e1e" text-anchor="middle" style="white-space: pre;" direction="ltr" dominant-baseline="alphabetic">Personnels</text></g><g stroke-linecap="round" transform="translate(140.53006857448406 413.5558062114504) rotate(0 106.5 31)"><path d="M15.5 0 C63.17 0, 110.85 0, 197.5 0 M15.5 0 C66.01 0, 116.53 0, 197.5 0 M197.5 0 C207.83 0, 213 5.17, 213 15.5 M197.5 0 C207.83 0, 213 5.17, 213 15.5 M213 15.5 C213 25.3, 213 35.1, 213 46.5 M213 15.5 C213 23.06, 213 30.63, 213 46.5 M213 46.5 C213 56.83, 207.83 62, 197.5 62 M213 46.5 C213 56.83, 207.83 62, 197.5 62 M197.5 62 C151.13 62, 104.75 62, 15.5 62 M197.5 62 C146.69 62, 95.87 62, 15.5 62 M15.5 62 C5.17 62, 0 56.83, 0 46.5 M15.5 62 C5.17 62, 0 56.83, 0 46.5 M0 46.5 C0 34.97, 0 23.44, 0 15.5 M0 46.5 C0 35.46, 0 24.42, 0 15.5 M0 15.5 C0 5.17, 5.17 0, 15.5 0 M0 15.5 C0 5.17, 5.17 0, 15.5 0" stroke="#1e1e1e" stroke-width="2" fill="none"></path></g><g transform="translate(192.76340216213055 432.0558062114504) rotate(0 54.266666412353516 12.5)"><text x="54.266666412353516" y="17.52" font-family="Virgil, Segoe UI Emoji" font-size="20px" fill="#1e1e1e" text-anchor="middle" style="white-space: pre;" direction="ltr" dominant-baseline="alphabetic">Déficiences</text></g><g stroke-linecap="round"><g transform="translate(246.53006857448406 329.0558062114504) rotate(0 288 0)"><path d="M0 0 C96 0, 480 0, 576 0 M0 0 C96 0, 480 0, 576 0" stroke="#1e1e1e" stroke-width="2" fill="none"></path></g></g><mask></mask><g stroke-linecap="round"><g transform="translate(247.04370433759988 574.6299015891443) rotate(179.5381340123248 289.73847511370036 2.335656252238607)"><path d="M0 0 C96.58 0.78, 482.9 3.89, 579.48 4.67 M0 0 C96.58 0.78, 482.9 3.89, 579.48 4.67" stroke="#1e1e1e" stroke-width="2" fill="none"></path></g></g><mask></mask><g stroke-linecap="round"><g transform="translate(245.53006857448406 329.0558062114504) rotate(0 0 30)"><path d="M0 0 C0 10, 0 50, 0 60 M0 0 C0 10, 0 50, 0 60" stroke="#1e1e1e" stroke-width="2" fill="none"></path></g><g transform="translate(245.53006857448406 329.0558062114504) rotate(0 0 30)"><path d="M-8.55 36.51 C-5.31 45.42, -2.07 54.32, 0 60 M-8.55 36.51 C-5.53 44.81, -2.51 53.11, 0 60" stroke="#1e1e1e" stroke-width="2" fill="none"></path></g><g transform="translate(245.53006857448406 329.0558062114504) rotate(0 0 30)"><path d="M8.55 36.51 C5.31 45.42, 2.07 54.32, 0 60 M8.55 36.51 C5.53 44.81, 2.51 53.11, 0 60" stroke="#1e1e1e" stroke-width="2" fill="none"></path></g></g><mask></mask><g stroke-linecap="round"><g transform="translate(826.7567468124959 516.1058176166584) rotate(179.5381340123248 0 30)"><path d="M0 0 C0 10, 0 50, 0 60 M0 0 C0 10, 0 50, 0 60" stroke="#1e1e1e" stroke-width="2" fill="none"></path></g><g transform="translate(826.7567468124959 516.1058176166584) rotate(179.5381340123248 0 30)"><path d="M-8.55 36.51 C-5.64 44.51, -2.72 52.52, 0 60 M-8.55 36.51 C-5.6 44.6, -2.66 52.7, 0 60" stroke="#1e1e1e" stroke-width="2" fill="none"></path></g><g transform="translate(826.7567468124959 516.1058176166584) rotate(179.5381340123248 0 30)"><path d="M8.55 36.51 C5.64 44.51, 2.72 52.52, 0 60 M8.55 36.51 C5.6 44.6, 2.66 52.7, 0 60" stroke="#1e1e1e" stroke-width="2" fill="none"></path></g></g><mask></mask><g stroke-linecap="round"><g transform="translate(535.5300685744841 327.0558062114504) rotate(0 0 30)"><path d="M0 0 C0 10, 0 50, 0 60 M0 0 C0 10, 0 50, 0 60" stroke="#1e1e1e" stroke-width="2" fill="none"></path></g><g transform="translate(535.5300685744841 327.0558062114504) rotate(0 0 30)"><path d="M-8.55 36.51 C-5.77 44.15, -2.99 51.79, 0 60 M-8.55 36.51 C-5.48 44.96, -2.4 53.4, 0 60" stroke="#1e1e1e" stroke-width="2" fill="none"></path></g><g transform="translate(535.5300685744841 327.0558062114504) rotate(0 0 30)"><path d="M8.55 36.51 C5.77 44.15, 2.99 51.79, 0 60 M8.55 36.51 C5.48 44.96, 2.4 53.4, 0 60" stroke="#1e1e1e" stroke-width="2" fill="none"></path></g></g><mask></mask><g stroke-linecap="round"><g transform="translate(539.7822585125741 515.4353801578217) rotate(179.5381340123248 0 30)"><path d="M0 0 C0 10, 0 50, 0 60 M0 0 C0 10, 0 50, 0 60" stroke="#1e1e1e" stroke-width="2" fill="none"></path></g><g transform="translate(539.7822585125741 515.4353801578217) rotate(179.5381340123248 0 30)"><path d="M-8.55 36.51 C-6.27 42.77, -3.99 49.03, 0 60 M-8.55 36.51 C-6.61 41.85, -4.66 47.2, 0 60" stroke="#1e1e1e" stroke-width="2" fill="none"></path></g><g transform="translate(539.7822585125741 515.4353801578217) rotate(179.5381340123248 0 30)"><path d="M8.55 36.51 C6.27 42.77, 3.99 49.03, 0 60 M8.55 36.51 C6.61 41.85, 4.66 47.2, 0 60" stroke="#1e1e1e" stroke-width="2" fill="none"></path></g></g><mask></mask><g stroke-linecap="round"><g transform="translate(822.5300685744841 329.0558062114504) rotate(0 0 30)"><path d="M0 0 C0 10, 0 50, 0 60 M0 0 C0 10, 0 50, 0 60" stroke="#1e1e1e" stroke-width="2" fill="none"></path></g><g transform="translate(822.5300685744841 329.0558062114504) rotate(0 0 30)"><path d="M-8.55 36.51 C-6.36 42.53, -4.17 48.54, 0 60 M-8.55 36.51 C-5.19 45.73, -1.84 54.95, 0 60" stroke="#1e1e1e" stroke-width="2" fill="none"></path></g><g transform="translate(822.5300685744841 329.0558062114504) rotate(0 0 30)"><path d="M8.55 36.51 C6.36 42.53, 4.17 48.54, 0 60 M8.55 36.51 C5.19 45.73, 1.84 54.95, 0 60" stroke="#1e1e1e" stroke-width="2" fill="none"></path></g></g><mask></mask><g stroke-linecap="round"><g transform="translate(246.80048898609635 516.9584390665781) rotate(179.5381340123248 0 30)"><path d="M0 0 C0 10, 0 50, 0 60 M0 0 C0 10, 0 50, 0 60" stroke="#1e1e1e" stroke-width="2" fill="none"></path></g><g transform="translate(246.80048898609635 516.9584390665781) rotate(179.5381340123248 0 30)"><path d="M-8.55 36.51 C-5.21 45.67, -1.88 54.84, 0 60 M-8.55 36.51 C-5.75 44.21, -2.95 51.9, 0 60" stroke="#1e1e1e" stroke-width="2" fill="none"></path></g><g transform="translate(246.80048898609635 516.9584390665781) rotate(179.5381340123248 0 30)"><path d="M8.55 36.51 C5.21 45.67, 1.88 54.84, 0 60 M8.55 36.51 C5.75 44.21, 2.95 51.9, 0 60" stroke="#1e1e1e" stroke-width="2" fill="none"></path></g></g><mask></mask><g stroke-linecap="round"><g transform="translate(535.5300685744841 325.0558062114504) rotate(0 0 -19.5)"><path d="M0 0 C0 -6.5, 0 -32.5, 0 -39 M0 0 C0 -6.5, 0 -32.5, 0 -39" stroke="#1e1e1e" stroke-width="2" fill="none"></path></g></g><mask></mask><g stroke-linecap="round"><g transform="translate(540 578.0558062114503) rotate(0 0 27.23157450231895)"><path d="M0 0 C0 9.08, 0 45.39, 0 54.46 M0 0 C0 9.08, 0 45.39, 0 54.46" stroke="#1e1e1e" stroke-width="2" fill="none"></path></g></g><mask></mask><g stroke-linecap="round"><g transform="translate(389.53006857448406 633.0558062114503) rotate(0 151.5 0.5)"><path d="M0 0 C50.5 0.17, 252.5 0.83, 303 1 M0 0 C50.5 0.17, 252.5 0.83, 303 1" stroke="#1e1e1e" stroke-width="2" fill="none"></path></g></g><mask></mask><g stroke-linecap="round"><g transform="translate(388.53006857448406 633.0558062114503) rotate(0 0 8.5)"><path d="M0 0 C0 2.83, 0 14.17, 0 17 M0 0 C0 2.83, 0 14.17, 0 17" stroke="#1e1e1e" stroke-width="2" fill="none"></path></g></g><mask></mask><g stroke-linecap="round"><g transform="translate(692.5300685744841 634.0558062114503) rotate(0 0 8.5)"><path d="M0 0 C0 2.83, 0 14.17, 0 17 M0 0 C0 2.83, 0 14.17, 0 17" stroke="#1e1e1e" stroke-width="2" fill="none"></path></g></g><mask></mask><g transform="translate(331.9753177327931 91.11868278419138) rotate(0 203.35000610351562 35)"><text x="203.35000610351562" y="24.528" font-family="Virgil, Segoe UI Emoji" font-size="28px" fill="#1e1e1e" text-anchor="middle" style="white-space: pre;" direction="ltr" dominant-baseline="alphabetic">Classification Internationale </text><text x="203.35000610351562" y="59.528" font-family="Virgil, Segoe UI Emoji" font-size="28px" fill="#1e1e1e" text-anchor="middle" style="white-space: pre;" direction="ltr" dominant-baseline="alphabetic">fonctionnement du Handicap</text></g><g transform="translate(457.75471329638765 480.4069976079754) rotate(0 78.46666717529297 10)"><text x="78.46666717529297" y="14.016" font-family="Virgil, Segoe UI Emoji" font-size="16px" fill="#1e1e1e" text-anchor="middle" style="white-space: pre;" direction="ltr" dominant-baseline="alphabetic">Limitation exécution</text></g><g transform="translate(745.2161785010936 480.0170316102723) rotate(0 80.05000305175781 10)"><text x="80.05000305175781" y="14.016" font-family="Virgil, Segoe UI Emoji" font-size="16px" fill="#1e1e1e" text-anchor="middle" style="white-space: pre;" direction="ltr" dominant-baseline="alphabetic">Limitation implication</text></g><g transform="translate(310.7190509874465 736.9233729847042) rotate(0 85.19999694824219 10)"><text x="85.19999694824219" y="14.016" font-family="Virgil, Segoe UI Emoji" font-size="16px" fill="#1e1e1e" text-anchor="middle" style="white-space: pre;" direction="ltr" dominant-baseline="alphabetic">Env. physique, social...</text></g><g transform="translate(164.9090082851555 665.0193261869442) rotate(0 29.141817959872128 7.636363636363626)"><text x="29.141817959872125" y="10.703127272727261" font-family="Virgil, Segoe UI Emoji" font-size="12.218181818181804px" fill="#ffffff" text-anchor="middle" style="white-space: pre;" direction="ltr" dominant-baseline="alphabetic">Numérique</text></g><g stroke-linecap="round"><g transform="translate(240.06353280628457 685.347789850706) rotate(0 15.584948996554829 4.452842570444204)"><path d="M0 0 C5.19 1.48, 25.97 7.42, 31.17 8.91 M0 0 C5.19 1.48, 25.97 7.42, 31.17 8.91" stroke="#1e1e1e" stroke-width="4" fill="none"></path></g><g transform="translate(240.06353280628457 685.347789850706) rotate(0 15.584948996554829 4.452842570444204)"><path d="M15 10.05 C21.34 9.6, 27.68 9.15, 31.17 8.91 M15 10.05 C20.86 9.64, 26.71 9.22, 31.17 8.91" stroke="#1e1e1e" stroke-width="4" fill="none"></path></g><g transform="translate(240.06353280628457 685.347789850706) rotate(0 15.584948996554829 4.452842570444204)"><path d="M18.05 -0.61 C23.19 3.12, 28.34 6.85, 31.17 8.91 M18.05 -0.61 C22.8 2.84, 27.55 6.28, 31.17 8.91" stroke="#1e1e1e" stroke-width="4" fill="none"></path></g></g><mask></mask></svg>